<svg width="15" height="14" viewBox="0 0 15 14" fill="none" xmlns="http://www.w3.org/2000/svg">
<path d="M14.0374 6.07804H3.28493L7.98251 1.57886C8.35793 1.2193 8.35793 0.629241 7.98251 0.269675C7.60709 -0.0898905 7.00064 -0.0898905 6.62522 0.269675L0.281567 6.34541C-0.0938549 6.70498 -0.0938549 7.28582 0.281567 7.64538L6.61559 13.7303C6.79544 13.903 7.03961 14 7.29424 14C7.54887 14 7.79304 13.903 7.97289 13.7303C8.34831 13.3708 8.34831 12.7899 7.97289 12.4304L3.28493 7.92197H14.0374C14.5668 7.92197 15 7.50709 15 7.00001C15 6.49293 14.5668 6.07804 14.0374 6.07804Z" fill="#2C2B2A" fill-opacity="0.87"/>
</svg>
