<svg width="15" height="14" viewBox="0 0 15 14" fill="none" xmlns="http://www.w3.org/2000/svg">
<path d="M0.962618 6.07804H11.7151L7.01749 1.57886C6.64207 1.2193 6.64207 0.629241 7.01749 0.269675C7.39291 -0.0898905 7.99936 -0.0898905 8.37478 0.269675L14.7184 6.34541C15.0939 6.70498 15.0939 7.28582 14.7184 7.64538L8.38441 13.7303C8.20456 13.903 7.96039 14 7.70576 14C7.45113 14 7.20696 13.903 7.02711 13.7303C6.65169 13.3708 6.65169 12.7899 7.02711 12.4304L11.7151 7.92197H0.962618C0.433178 7.92197 0 7.50709 0 7.00001C0 6.49293 0.433178 6.07804 0.962618 6.07804Z" fill="#2C2B2A" fill-opacity="0.87"/>
</svg>
