<svg width="111" height="48" viewBox="0 0 111 48" fill="none" xmlns="http://www.w3.org/2000/svg">
<path d="M14.6942 13.9803C14.6942 18.4125 11.5193 21.3477 7.44743 21.3477C3.37554 21.3477 0.0236052 18.6247 0 12.6247C0 2.4872 4.98069 0.754395 12.9002 0.754395V3.52453C6.4088 3.52453 3.39914 4.53829 2.98605 10.0903C4.02468 8.12178 6.07833 7.10803 8.2264 7.10803C11.8616 7.10803 14.6942 9.83101 14.6942 13.9803ZM11.7554 14.1336C11.7554 11.4106 9.91416 9.61883 7.47103 9.61883C5.0279 9.61883 2.95064 11.387 2.95064 14.1336C2.95064 16.8801 4.85086 18.8015 7.3176 18.8015C9.78434 18.8015 11.7554 16.9862 11.7554 14.1336Z" fill="white"/>
<path d="M56.015 18.2828V24.7425H53.088V21.0294H40.9904V24.7425H38.0515V18.2828H40.5419C41.191 17.7877 41.6041 16.7032 41.9464 14.6757L43.221 6.76611H53.4303V18.2828H56.0268H56.015ZM50.4796 18.2828V9.51268H45.6996L44.838 14.8054C44.5783 16.4675 44.2125 17.552 43.7167 18.2828H50.4678H50.4796Z" fill="white"/>
<path d="M73.1641 13.8978C73.1641 18.2593 70.3905 21.3359 66.5665 21.3359C64.3358 21.3359 62.6244 20.2515 61.5858 18.6365V27.501H58.647V6.7662H61.5858V9.20628C62.6244 7.56777 64.3358 6.45972 66.6019 6.45972C70.3433 6.45972 73.1759 9.54813 73.1759 13.8978H73.1641ZM70.2017 13.8978C70.2017 11.1748 68.4313 9.25343 65.941 9.25343C63.4506 9.25343 61.5504 11.1748 61.5504 13.8978C61.5504 16.6208 63.4506 18.5422 65.941 18.5422C68.4313 18.5422 70.2017 16.6444 70.2017 13.8978Z" fill="white"/>
<path d="M88.2833 16.0313C88.2833 19.4498 85.9936 21.0412 83.0665 21.0412H76.1384V6.76611H79.0655V11.2337H83.1728C86.1116 11.2337 88.2833 12.6129 88.2833 16.0313ZM85.3208 16.0313C85.3208 14.7111 84.8015 13.827 83.0075 13.827H79.0655V18.2357H82.9603C84.7543 18.2357 85.3208 17.3044 85.3208 16.0313ZM93.323 6.76611V21.0294H90.3841V6.76611H93.323Z" fill="white"/>
<path d="M110 6.76621V21.0295H107.073V15.0648L107.25 10.5501L100.192 21.0295H96.7339V6.76621H99.6609V12.7308L99.4839 17.222L106.554 6.76621H110.012H110ZM99.118 0.601179V0H101.455V0.495088C101.455 1.66208 102.21 2.39293 103.379 2.39293C104.547 2.39293 105.279 1.66208 105.279 0.495088V0H107.616V0.601179C107.616 3.12377 105.645 4.62082 103.391 4.62082C101.136 4.62082 99.1298 3.11198 99.1298 0.601179H99.118Z" fill="white"/>
<path d="M17.9635 41.5401V47.9999H15.0365V44.2867H2.93884V47.9999H0V41.5401H2.49034C3.13949 41.0451 3.55258 39.9606 3.89485 37.9331L5.16953 30.0234H15.367V41.5401H17.9635ZM12.4281 41.5401V32.77H7.65987L6.79828 38.0627C6.53863 39.7248 6.17275 40.8093 5.67704 41.5401H12.4281Z" fill="white"/>
<path d="M33.9796 37.9685H22.3777C22.6137 40.5854 24.4549 42.0471 26.839 42.0471C28.5504 42.0471 29.9785 41.3163 30.6631 39.9135H33.6963C32.5751 43.108 29.8605 44.6051 26.8154 44.6051C22.4839 44.6051 19.3916 41.4931 19.3916 37.1905C19.3916 32.888 22.4603 29.717 26.7682 29.717C31.3594 29.717 34.2746 33.2652 33.9914 37.9685H33.9796ZM22.5311 35.5874H30.8401C30.4034 33.6424 28.9163 32.2632 26.7564 32.2632C24.5965 32.2632 23.015 33.666 22.5311 35.5874Z" fill="white"/>
<path d="M50.2908 30.0354V44.2987H47.3519V38.4165H39.7747V44.2987H36.8477V30.0354H39.7747V35.6346H47.3519V30.0354H50.2908Z" fill="white"/>
<path d="M65.882 39.2888C65.882 42.7073 63.6041 44.2987 60.6652 44.2987H53.7017V30.0354H56.6288V34.503H60.7597C63.6985 34.503 65.8702 35.8822 65.8702 39.3006L65.882 39.2888ZM62.9195 39.2888C62.9195 37.9686 62.4002 37.0845 60.6062 37.0845H56.6288V41.4932H60.5708C62.3648 41.4932 62.9077 40.5619 62.9077 39.2888H62.9195Z" fill="white"/>
<path d="M27.1931 24.118C21.044 24.118 16.0515 19.1199 16.0515 12.9903C16.0515 6.86058 21.0558 1.86255 27.1931 1.86255C33.3305 1.86255 38.3348 6.86058 38.3348 12.9903C38.3348 19.1199 33.3305 24.118 27.1931 24.118ZM27.1931 4.16117C22.3187 4.16117 18.3648 8.12188 18.3648 12.9785C18.3648 17.835 22.3305 21.7957 27.1931 21.7957C32.0558 21.7957 36.0215 17.835 36.0215 12.9785C36.0215 8.12188 32.0558 4.16117 27.1931 4.16117Z" fill="#52AE32"/>
<path d="M32.4925 13.3203L28.3734 11.1278L29.3412 10.6209C32.4453 8.99417 32.5397 8.9706 32.6223 8.94702L32.8938 10.0669L32.7522 9.50105L32.9528 10.0433C32.8112 10.1022 31.7962 10.6327 30.8283 11.1278L33.0118 12.2948L32.4689 13.3085L32.4925 13.3203Z" fill="#52AE32"/>
<path d="M22.1062 13.332L21.5869 12.3064L23.794 11.163L21.5869 10.0314L22.1062 9.00586L26.3197 11.163L22.1062 13.332Z" fill="#52AE32"/>
<path d="M27.9249 17.9764V16.8212C28.2554 16.8212 28.5386 16.5501 28.5386 16.22C28.5386 15.7013 27.7951 15.4302 27.4646 15.831L26.5794 15.1002C26.9217 14.6994 27.4056 14.4636 27.9367 14.4636C28.9045 14.4636 29.6953 15.2534 29.6953 16.22C29.6953 17.1866 28.9045 17.9764 27.9367 17.9764H27.9249Z" fill="#52AE32"/>
<path d="M27.9131 20.3458C27.3938 20.3458 26.9099 20.1219 26.5794 19.7329L27.4528 18.9785C27.7951 19.3792 28.5268 19.0963 28.5268 18.5895C28.5268 18.2594 28.2554 17.9765 27.9131 17.9765V16.8213C28.8809 16.8213 29.6717 17.6111 29.6717 18.5777C29.6717 19.5443 28.8809 20.3341 27.9131 20.3341V20.3458Z" fill="#52AE32"/>
</svg>
