<svg width="110" height="48" viewBox="0 0 110 48" fill="none" xmlns="http://www.w3.org/2000/svg">
<g clip-path="url(#clip0_335_456)">
<path d="M14.6942 13.9803C14.6942 18.4125 11.5193 21.3477 7.44743 21.3477C3.37554 21.3477 0.0236052 18.6247 0 12.6247C0 2.4872 4.98069 0.754395 12.9002 0.754395V3.52453C6.4088 3.52453 3.39914 4.53829 2.98605 10.0903C4.02468 8.12178 6.07833 7.10803 8.2264 7.10803C11.8616 7.10803 14.6942 9.83101 14.6942 13.9803ZM11.7554 14.1336C11.7554 11.4106 9.91416 9.61883 7.47103 9.61883C5.0279 9.61883 2.95064 11.387 2.95064 14.1336C2.95064 16.8801 4.85086 18.8015 7.3176 18.8015C9.78434 18.8015 11.7554 16.9862 11.7554 14.1336Z" fill="#2C2B2A"/>
<path d="M56.015 18.2829V24.7427H53.088V21.0295H40.9904V24.7427H38.0515V18.2829H40.5419C41.191 17.7878 41.6041 16.7034 41.9464 14.6759L43.221 6.76624H53.4303V18.2829H56.0268H56.015ZM50.4796 18.2829V9.5128H45.6996L44.838 14.8055C44.5783 16.4676 44.2125 17.5521 43.7167 18.2829H50.4678H50.4796Z" fill="#2C2B2A"/>
<path d="M73.1641 13.8978C73.1641 18.2593 70.3905 21.3359 66.5665 21.3359C64.3358 21.3359 62.6244 20.2515 61.5858 18.6365V27.501H58.647V6.7662H61.5858V9.20628C62.6244 7.56777 64.3358 6.45972 66.6019 6.45972C70.3433 6.45972 73.1759 9.54813 73.1759 13.8978H73.1641ZM70.2017 13.8978C70.2017 11.1748 68.4313 9.25343 65.941 9.25343C63.4506 9.25343 61.5504 11.1748 61.5504 13.8978C61.5504 16.6208 63.4506 18.5422 65.941 18.5422C68.4313 18.5422 70.2017 16.6444 70.2017 13.8978Z" fill="#2C2B2A"/>
<path d="M88.2833 16.0315C88.2833 19.4499 85.9936 21.0413 83.0665 21.0413H76.1384V6.76624H79.0655V11.2338H83.1728C86.1116 11.2338 88.2833 12.613 88.2833 16.0315ZM85.3208 16.0315C85.3208 14.7112 84.8015 13.8271 83.0075 13.8271H79.0655V18.2358H82.9603C84.7543 18.2358 85.3208 17.3045 85.3208 16.0315ZM93.323 6.76624V21.0295H90.3841V6.76624H93.323Z" fill="#2C2B2A"/>
<path d="M110 6.76621V21.0295H107.073V15.0648L107.25 10.5501L100.192 21.0295H96.7339V6.76621H99.6609V12.7308L99.4839 17.222L106.554 6.76621H110.012H110ZM99.118 0.601179V0H101.455V0.495088C101.455 1.66208 102.21 2.39293 103.379 2.39293C104.547 2.39293 105.279 1.66208 105.279 0.495088V0H107.616V0.601179C107.616 3.12377 105.645 4.62082 103.391 4.62082C101.136 4.62082 99.1298 3.11198 99.1298 0.601179H99.118Z" fill="#2C2B2A"/>
<path d="M17.9635 41.5403V48H15.0365V44.2868H2.93884V48H0V41.5403H2.49034C3.13949 41.0452 3.55258 39.9607 3.89485 37.9332L5.16953 30.0236H15.367V41.5403H17.9635ZM12.4281 41.5403V32.7701H7.65987L6.79828 38.0629C6.53863 39.7249 6.17275 40.8094 5.67704 41.5403H12.4281Z" fill="#2C2B2A"/>
<path d="M33.9796 37.9685H22.3777C22.6137 40.5854 24.4549 42.0471 26.839 42.0471C28.5504 42.0471 29.9785 41.3163 30.6631 39.9135H33.6963C32.5751 43.108 29.8605 44.6051 26.8154 44.6051C22.4839 44.6051 19.3916 41.4931 19.3916 37.1905C19.3916 32.888 22.4603 29.717 26.7682 29.717C31.3594 29.717 34.2746 33.2652 33.9914 37.9685H33.9796ZM22.5311 35.5874H30.8401C30.4034 33.6424 28.9163 32.2632 26.7564 32.2632C24.5965 32.2632 23.015 33.666 22.5311 35.5874Z" fill="#2C2B2A"/>
<path d="M50.2908 30.0353V44.2985H47.3519V38.4164H39.7747V44.2985H36.8477V30.0353H39.7747V35.6345H47.3519V30.0353H50.2908Z" fill="#2C2B2A"/>
<path d="M65.8819 39.2887C65.8819 42.7072 63.604 44.2985 60.6652 44.2985H53.7017V30.0353H56.6287V34.5029H60.7596C63.6984 34.5029 65.8701 35.882 65.8701 39.3005L65.8819 39.2887ZM62.9195 39.2887C62.9195 37.9685 62.4002 37.0844 60.6062 37.0844H56.6287V41.493H60.5708C62.3647 41.493 62.9077 40.5618 62.9077 39.2887H62.9195Z" fill="#2C2B2A"/>
<path d="M27.1931 24.1178C21.044 24.1178 16.0515 19.1198 16.0515 12.9901C16.0515 6.86046 21.0558 1.86243 27.1931 1.86243C33.3305 1.86243 38.3348 6.86046 38.3348 12.9901C38.3348 19.1198 33.3305 24.1178 27.1931 24.1178ZM27.1931 4.16105C22.3187 4.16105 18.3648 8.12176 18.3648 12.9783C18.3648 17.8349 22.3305 21.7956 27.1931 21.7956C32.0558 21.7956 36.0215 17.8349 36.0215 12.9783C36.0215 8.12176 32.0558 4.16105 27.1931 4.16105Z" fill="#52AE32"/>
<path d="M32.4924 13.3202L28.3733 11.1276L29.3411 10.6208C32.4452 8.99405 32.5396 8.97048 32.6222 8.9469L32.8937 10.0667L32.752 9.50093L32.9527 10.0432C32.8111 10.1021 31.796 10.6326 30.8282 11.1276L33.0117 12.2946L32.4688 13.3084L32.4924 13.3202Z" fill="#52AE32"/>
<path d="M22.1062 13.332L21.5869 12.3064L23.794 11.163L21.5869 10.0314L22.1062 9.00586L26.3197 11.163L22.1062 13.332Z" fill="#52AE32"/>
<path d="M27.9248 17.9764V16.8212C28.2553 16.8212 28.5386 16.5501 28.5386 16.22C28.5386 15.7013 27.795 15.4302 27.4645 15.831L26.5793 15.1002C26.9216 14.6994 27.4055 14.4636 27.9366 14.4636C28.9045 14.4636 29.6952 15.2534 29.6952 16.22C29.6952 17.1866 28.9045 17.9764 27.9366 17.9764H27.9248Z" fill="#52AE32"/>
<path d="M27.913 20.3457C27.3937 20.3457 26.9098 20.1218 26.5793 19.7328L27.4527 18.9783C27.795 19.3791 28.5268 19.0962 28.5268 18.5893C28.5268 18.2593 28.2553 17.9764 27.913 17.9764V16.8212C28.8808 16.8212 29.6716 17.611 29.6716 18.5776C29.6716 19.5442 28.8808 20.3339 27.913 20.3339V20.3457Z" fill="#52AE32"/>
</g>
<defs>
<clipPath id="clip0_335_456">
<rect width="110" height="48" fill="white"/>
</clipPath>
</defs>
</svg>
