<svg width="13" height="16" viewBox="0 0 13 16" fill="none" xmlns="http://www.w3.org/2000/svg">
<path fill-rule="evenodd" clip-rule="evenodd" d="M6.83663 0C10.2106 0 12.9457 2.73513 12.9457 6.10909C12.9457 6.52092 12.905 6.92324 12.8273 7.31223C12.2881 11.3755 6.86873 16 6.86873 16C6.86873 16 2.25682 12.0645 1.11868 8.26462C0.865868 7.59431 0.727539 6.86786 0.727539 6.10909C0.727539 2.73513 3.46267 0 6.83663 0Z" fill="#52AE32"/>
<path d="M9.16407 6.10926C9.16407 4.82394 8.12211 3.78198 6.83679 3.78198C5.55148 3.78198 4.50952 4.82394 4.50952 6.10926C4.50952 7.39457 5.55148 8.43653 6.83679 8.43653C8.12211 8.43653 9.16407 7.39457 9.16407 6.10926Z" fill="white"/>
</svg>
