<svg width="226" height="40" viewBox="0 0 226 40" fill="none" xmlns="http://www.w3.org/2000/svg">
<g clip-path="url(#clip0_391_1262)">
<path fill-rule="evenodd" clip-rule="evenodd" d="M51.5251 32.3806L58.7291 32.3665C59.157 31.0343 64.7118 19.7421 65.244 19.1838L66.9054 32.3574L75.9177 32.3391C76.7413 30.8378 83.4506 19.8866 84.0869 19.316L84.0875 32.3793L93.0069 32.3483L92.9701 7.58509L83.9421 7.55793C82.6668 9.29285 75.2011 22.1227 74.5273 22.4101L72.7179 7.64987L63.5997 7.55554L57.5797 19.7955C56.5617 21.8524 55.5809 23.8216 54.5813 25.9505C53.6948 27.8382 52.1886 30.4636 51.5251 32.3806Z" fill="black"/>
<path fill-rule="evenodd" clip-rule="evenodd" d="M131.511 13.1826C131.473 13.1289 131.412 12.9819 131.395 13.0225L131.024 12.4689L123.266 12.4432L123.249 37.4406L131.849 37.449L131.87 29.245C132.723 29.2916 132.029 29.1952 132.345 29.555C134.031 30.9904 134.464 31.8432 137.472 32.5435C143.539 33.9563 151.484 31.254 151.262 21.8272C151.055 13.0821 142.987 10.6786 137.027 12.2289C134.364 12.9215 133.497 14.0483 131.909 15.4979L131.511 13.1826Z" fill="black"/>
<path fill-rule="evenodd" clip-rule="evenodd" d="M96.7932 18.9872C96.933 18.9651 111.9 13.3584 111.303 19.9993C104.672 20.0311 93.1004 19.4167 95.0841 28.2138C96.3064 33.6342 104.476 33.6319 107.844 32.1818C109.646 31.4058 110.258 30.5549 111.535 29.5965L112.195 32.3118L120.536 32.3649C120.331 28.034 120.457 23.8826 120.372 19.5791C120.285 15.1766 118.399 13.3363 114.702 12.3555C109.774 11.0484 102.577 11.7018 97.6584 13.3433C96.4432 13.7489 96.7608 13.9854 96.7838 15.5464C96.8006 16.6912 96.7932 17.8417 96.7932 18.9872Z" fill="black"/>
<path fill-rule="evenodd" clip-rule="evenodd" d="M201.4 31.1096L201.408 26.2895C198.19 26.9879 196.668 27.738 192.942 27.6388C190.145 27.5643 186.837 26.8224 186.596 24.169C189.221 24.0616 200.915 24.4922 202.324 23.9556C203.515 16.7588 199.804 12.8978 193.566 12.0275C186.866 11.0929 180.808 13.3835 178.469 17.6887C175.879 22.4572 177.48 29.0606 183.615 31.5117C186.323 32.594 189.615 32.881 192.729 32.8357C196.853 32.7759 198.121 32.1567 201.4 31.1096Z" fill="black"/>
<path fill-rule="evenodd" clip-rule="evenodd" d="M162.222 21.0441C161.979 21.3738 162.52 21.3821 161.86 21.2875L161.831 12.4593L153.243 12.446L153.225 32.3389L161.982 32.356V23.7824C163.304 24.4898 168.292 32.1461 169.285 32.3588L179.792 32.3491C179.262 31.7813 178.226 30.297 177.592 29.5479C176.787 28.598 176.062 27.6436 175.192 26.602C173.644 24.7485 171.757 22.5949 170.442 20.7077C171.163 19.4105 173.108 17.8245 174.25 16.5488C174.937 15.7807 177.781 12.9032 178.077 12.299C176.068 12.2046 173.949 12.2747 171.925 12.2602C169.978 12.2462 169.98 12.8341 168.226 14.7042L162.222 21.0441Z" fill="black"/>
<path fill-rule="evenodd" clip-rule="evenodd" d="M209.757 17.6222L209.731 32.3594L218.707 32.3576L218.613 17.6026C219.17 17.2004 217.813 17.2359 219.49 17.2701L225.627 17.2724L225.639 12.4566L203.204 12.445L203.193 17.2573L209.108 17.2586C209.744 17.3779 209.462 17.2674 209.757 17.6222Z" fill="black"/>
<path fill-rule="evenodd" clip-rule="evenodd" d="M6.38127 26.8743C5.55122 29.0057 0.458802 35.9211 0.138344 37.2161L9.82568 37.2532L11.1296 35.2541C11.5755 34.7302 11.174 35.0229 11.7025 34.7867C11.8707 33.7665 17.7391 24.7781 19.0778 22.6994C19.9211 21.3901 20.793 19.9043 21.6826 18.7327C21.4247 21.289 18.5518 29.9995 18.8043 31.5587L25.9595 32.7828C27.0873 31.4762 28.1537 29.9962 29.1812 28.6712C29.7646 27.9192 31.9526 24.9075 32.658 24.4818L30.5814 33.8181L39.8559 32.1395L46.3893 30.8224C45.8933 29.0562 43.9247 27.0684 43.3615 25.2365L38.4631 26.3468L40.8181 15.9456C39.0544 14.9863 36.0857 12.4327 34.596 11.9143C33.0316 13.5162 28.2352 20.3195 27.2984 20.9409C27.4908 18.3623 30.135 10.7684 30.0488 8.5257C28.1479 7.72182 23.0754 3.51466 21.5136 2.99824L6.38127 26.8743Z" fill="#FEDC01"/>
<path fill-rule="evenodd" clip-rule="evenodd" d="M6.38127 26.8743L21.5136 2.99818C23.0754 3.5146 28.1479 7.72176 30.0488 8.52564C30.1349 10.7684 27.4908 18.3623 27.2984 20.9409C28.2352 20.3195 33.0316 13.5162 34.596 11.9143C36.0857 12.4327 39.0544 14.9862 40.8181 15.9455L38.4631 26.3467L43.3615 25.2364C44.7397 18.0238 43.2647 11.4031 39.3492 7.15341C35.1887 2.63788 30.1364 -0.174057 23.3085 0.282063C13.8172 0.916391 6.86299 8.27759 5.4806 16.8098C4.80375 20.9879 5.48293 23.1301 6.38127 26.8743Z" fill="#FD5125"/>
<path fill-rule="evenodd" clip-rule="evenodd" d="M11.7025 34.7866C15.7713 37.8165 20.0589 40.3569 26.8688 39.5532C32.9461 38.8358 37.2435 35.5336 39.8559 32.1395L30.5814 33.8181L32.658 24.4818C31.9526 24.9075 29.7646 27.9192 29.1812 28.6712C28.1537 29.9961 27.0873 31.4762 25.9595 32.7828L18.8043 31.5587C18.5518 29.9995 21.4247 21.289 21.6826 18.7326C20.793 19.9043 19.9212 21.39 19.0778 22.6994C17.7391 24.7781 11.8707 33.7664 11.7025 34.7866Z" fill="#FD5125"/>
<path fill-rule="evenodd" clip-rule="evenodd" d="M135.957 17.0944C129.618 18.5544 130.816 28.7901 138.278 27.5923C144.201 26.6412 143.179 15.4307 135.957 17.0944Z" fill="white"/>
<path fill-rule="evenodd" clip-rule="evenodd" d="M111.282 23.711C109.624 23.6826 104.721 23.2924 104.06 25.249C102.984 28.4276 107.159 28.9709 109.446 27.7484C111.021 26.9066 111.695 26.2016 111.282 23.711Z" fill="white"/>
<path fill-rule="evenodd" clip-rule="evenodd" d="M186.578 20.1942L194.239 20.2094C194.848 14.8695 186.535 15.5722 186.578 20.1942Z" fill="white"/>
<path fill-rule="evenodd" clip-rule="evenodd" d="M132.345 29.555C132.029 29.1952 132.723 29.2916 131.87 29.245L131.849 37.449L123.249 37.4406L123.266 12.4432L131.024 12.4688L131.395 13.0225C131.412 12.9819 131.473 13.1289 131.511 13.1826L131.392 12.288L123.088 12.1949C122.829 13.5652 122.861 36.5803 123.119 37.6585L132.022 37.7015C132.352 36.0842 131.627 30.2871 132.345 29.555Z" fill="white"/>
<path fill-rule="evenodd" clip-rule="evenodd" d="M209.757 17.6222C209.462 17.2674 209.744 17.3779 209.108 17.2586L203.193 17.2573L203.204 12.4449L225.639 12.4566L225.627 17.2724L219.49 17.27C217.813 17.2359 219.17 17.2004 218.613 17.6026L225.782 17.5369L225.872 12.2825L203.019 12.2032L202.939 17.4722L209.757 17.6222Z" fill="white"/>
<path fill-rule="evenodd" clip-rule="evenodd" d="M153.225 32.3389L153.243 12.446L161.831 12.4593L161.86 21.2874C162.52 21.3821 161.979 21.3737 162.222 21.0441L162.075 12.2311L153.002 12.2082L152.916 31.2556C152.918 31.3357 152.94 31.8366 152.954 31.8913C153.119 32.5231 152.796 31.9237 153.225 32.3389Z" fill="white"/>
</g>
<defs>
<clipPath id="clip0_391_1262">
<rect width="225.882" height="40" fill="white"/>
</clipPath>
</defs>
</svg>
