<svg width="40" height="40" viewBox="0 0 40 40" fill="none" xmlns="http://www.w3.org/2000/svg">
<path fill-rule="evenodd" clip-rule="evenodd" d="M29.8 10.025C27.175 7.4 23.675 6 20 6C12.3 6 6 12.3 6 20C6 22.45 6.70001 24.9 7.92501 27L6 34L13.35 32.075C15.45 33.125 17.725 33.825 20 33.825C27.7 33.825 34 27.525 34 19.825C34 16.15 32.425 12.65 29.8 10.025ZM20 31.55C17.9 31.55 15.8 31.025 14.05 29.975L13.7 29.8L9.32499 31.025L10.55 26.825L10.2 26.3C8.97499 24.375 8.44999 22.275 8.44999 20.175C8.44999 13.875 13.7 8.625 20 8.625C23.15 8.625 25.95 9.85 28.225 11.95C30.5 14.225 31.55 17.025 31.55 20.175C31.55 26.3 26.475 31.55 20 31.55ZM26.3 22.8C25.95 22.625 24.2 21.75 23.85 21.75C23.5 21.575 23.325 21.575 23.15 21.925C22.975 22.275 22.275 22.975 22.1 23.325C21.925 23.5 21.75 23.5 21.4 23.5C21.05 23.325 20 22.975 18.6 21.75C17.55 20.875 16.85 19.65 16.675 19.3C16.5 18.95 16.675 18.775 16.85 18.6C17.025 18.425 17.2 18.25 17.375 18.075C17.55 17.9 17.55 17.725 17.725 17.55C17.9 17.375 17.725 17.2 17.725 17.025C17.725 16.85 17.025 15.1 16.675 14.4C16.5 13.875 16.15 13.875 15.975 13.875C15.8 13.875 15.625 13.875 15.275 13.875C15.1 13.875 14.75 13.875 14.4 14.225C14.05 14.575 13.175 15.45 13.175 17.2C13.175 18.95 14.4 20.525 14.575 20.875C14.75 21.05 17.025 24.725 20.525 26.125C23.5 27.35 24.025 27 24.725 27C25.425 27 26.825 26.125 27 25.425C27.35 24.55 27.35 23.85 27.175 23.85C27 22.975 26.65 22.975 26.3 22.8Z" fill="#2C2B2A"/>
</svg>
