<svg width="105" height="45" viewBox="0 0 105 45" fill="none" xmlns="http://www.w3.org/2000/svg">
<g clip-path="url(#clip0_391_1238)">
<path d="M104.4 0H0V45H104.4V0Z" fill="#005BFF"/>
<path d="M46.2357 26.2871H39.9813L47.966 15.9259C48.14 15.6984 48.0917 15.3666 47.8597 15.1959C47.7727 15.1296 47.6567 15.0917 47.5407 15.0917H35.989C34.974 15.0917 34.1427 15.9069 34.1427 16.9023C34.1427 17.8976 34.974 18.7129 35.989 18.7129H41.18L33.1663 29.0836C32.9827 29.3112 33.031 29.6335 33.263 29.8136C33.3597 29.8894 33.4757 29.9273 33.5917 29.9179H46.226C47.241 29.8705 48.024 29.0173 47.9757 28.0124C47.9273 27.0834 47.1733 26.344 46.226 26.2966V26.2871H46.2357ZM86.6037 15.0917C85.5887 15.0917 84.7573 15.9069 84.7573 16.9023V22.9787L74.7813 15.2149C74.559 15.0348 74.2207 15.0632 74.037 15.2907C73.9597 15.3855 73.921 15.4993 73.921 15.6225V28.1072C73.921 29.1026 74.7523 29.9179 75.7673 29.9179C76.7823 29.9179 77.6137 29.1121 77.6137 28.1072V22.0308L87.5897 29.8041C87.8217 29.9842 88.16 29.9463 88.3437 29.7188C88.421 29.624 88.4597 29.5102 88.4597 29.3965V16.9023C88.45 15.8974 87.6283 15.0917 86.6037 15.0917ZM60.204 26.6284C55.9797 26.6284 52.8283 24.4481 52.8283 22.4953C52.8283 20.5425 55.9893 18.3621 60.204 18.3621C64.4283 18.3621 67.5797 20.5425 67.5797 22.4953C67.5797 24.4481 64.438 26.6284 60.204 26.6284ZM60.204 14.7409C54.0947 14.7409 49.1357 18.2105 49.1357 22.4953C49.1357 26.7801 54.0947 30.2496 60.204 30.2496C66.3133 30.2496 71.2723 26.7801 71.2723 22.4953C71.2723 18.2105 66.3133 14.7409 60.204 14.7409ZM23.867 26.6379C21.5373 26.6379 19.6427 24.7894 19.6427 22.5048C19.6427 20.2202 21.5277 18.3621 23.8573 18.3621C26.187 18.3621 28.0817 20.2107 28.0817 22.4953V22.5048C28.0817 24.7799 26.1967 26.6284 23.867 26.6379ZM23.867 14.7409C19.4977 14.7409 15.9597 18.2105 15.95 22.4953C15.95 26.7801 19.488 30.2496 23.8573 30.2591C28.2267 30.2591 31.7647 26.7896 31.7743 22.5048V22.4953C31.7647 18.2105 28.2267 14.7409 23.867 14.7409Z" fill="white"/>
</g>
<defs>
<clipPath id="clip0_391_1238">
<rect width="104.4" height="45" fill="white"/>
</clipPath>
</defs>
</svg>
