<svg width="40" height="40" viewBox="0 0 40 40" fill="none" xmlns="http://www.w3.org/2000/svg">
<path d="M7.92485 18.3319C15.441 14.945 20.453 12.7121 22.9607 11.6333C30.1209 8.5531 31.6087 8.01803 32.5784 8.00017C32.7917 7.99647 33.2686 8.05114 33.5775 8.31039C33.8383 8.5293 33.9101 8.82501 33.9444 9.03255C33.9788 9.2401 34.0215 9.7129 33.9876 10.0823C33.5995 14.2989 31.9206 24.5315 31.0665 29.2542C30.7051 31.2525 29.9934 31.9225 29.3045 31.9881C27.8072 32.1306 26.6703 30.9647 25.2201 29.9815C22.9509 28.443 21.669 27.4853 19.4663 25.984C16.9207 24.2491 18.5709 23.2955 20.0216 21.7371C20.4013 21.3292 26.9982 15.1231 27.1259 14.5601C27.1419 14.4897 27.1567 14.2273 27.0059 14.0887C26.8552 13.9501 26.6327 13.9975 26.4721 14.0352C26.2445 14.0886 22.6194 16.5668 15.5968 21.4697C14.5678 22.2005 13.6358 22.5566 12.8008 22.5379C11.8802 22.5174 10.1094 21.9996 8.79297 21.557C7.17832 21.0142 5.89504 20.7271 6.00678 19.8052C6.06499 19.325 6.70434 18.8339 7.92485 18.3319Z" fill="#2C2B2A"/>
</svg>
