<svg width="23" height="24" viewBox="0 0 23 24" fill="none" xmlns="http://www.w3.org/2000/svg">
<path d="M11.1931 23.118C5.044 23.118 0.0515137 18.1199 0.0515137 11.9903C0.0515137 5.86058 5.05581 0.862549 11.1931 0.862549C17.3305 0.862549 22.3348 5.86058 22.3348 11.9903C22.3348 18.1199 17.3305 23.118 11.1931 23.118ZM11.1931 3.16117C6.31868 3.16117 2.36482 7.12188 2.36482 11.9785C2.36482 16.835 6.33048 20.7957 11.1931 20.7957C16.0558 20.7957 20.0215 16.835 20.0215 11.9785C20.0215 7.12188 16.0558 3.16117 11.1931 3.16117Z" fill="#52AE32"/>
<path d="M16.4925 12.3203L12.3734 10.1278L13.3412 9.62089C16.4453 7.99417 16.5397 7.9706 16.6223 7.94702L16.8938 9.06686L16.7522 8.50105L16.9528 9.04329C16.8112 9.10223 15.7962 9.63268 14.8283 10.1278L17.0118 11.2948L16.4689 12.3085L16.4925 12.3203Z" fill="#52AE32"/>
<path d="M6.10623 12.332L5.58691 11.3064L7.79399 10.163L5.58691 9.0314L6.10623 8.00586L10.3197 10.163L6.10623 12.332Z" fill="#52AE32"/>
<path d="M11.9249 16.9764V15.8212C12.2554 15.8212 12.5386 15.5501 12.5386 15.22C12.5386 14.7013 11.7951 14.4302 11.4646 14.831L10.5794 14.1002C10.9217 13.6994 11.4056 13.4636 11.9367 13.4636C12.9045 13.4636 13.6953 14.2534 13.6953 15.22C13.6953 16.1866 12.9045 16.9764 11.9367 16.9764H11.9249Z" fill="#52AE32"/>
<path d="M11.9131 19.3458C11.3938 19.3458 10.9099 19.1219 10.5794 18.7329L11.4528 17.9785C11.7951 18.3792 12.5268 18.0963 12.5268 17.5895C12.5268 17.2594 12.2554 16.9765 11.9131 16.9765V15.8213C12.8809 15.8213 13.6717 16.6111 13.6717 17.5777C13.6717 18.5443 12.8809 19.3341 11.9131 19.3341V19.3458Z" fill="#52AE32"/>
</svg>
