<svg width="175" height="45" viewBox="0 0 175 45" fill="none" xmlns="http://www.w3.org/2000/svg">
<g clip-path="url(#clip0_391_1242)">
<mask id="mask0_391_1242" style="mask-type:luminance" maskUnits="userSpaceOnUse" x="0" y="0" width="175" height="45">
<path d="M171.408 0.154694H4.02866C2.08234 0.154694 0.504707 1.6686 0.504707 3.53593V41.6129C0.504707 43.4803 2.08234 44.9941 4.02866 44.9941H171.408C173.354 44.9941 174.932 43.4803 174.932 41.6129V3.53593C174.932 1.6686 173.354 0.154694 171.408 0.154694Z" fill="white"/>
</mask>
<g mask="url(#mask0_391_1242)">
<path d="M171.408 0.154694H4.02866C2.08234 0.154694 0.504707 1.6686 0.504707 3.53593V41.6129C0.504707 43.4803 2.08234 44.9941 4.02866 44.9941H171.408C173.354 44.9941 174.932 43.4803 174.932 41.6129V3.53593C174.932 1.6686 173.354 0.154694 171.408 0.154694Z" fill="url(#paint0_linear_391_1242)"/>
</g>
<path d="M19.6856 30.492L15.2623 14.6409H18.1637L21.5624 26.8154L25.2049 14.64L27.9095 14.6409L31.5648 26.88L34.9787 14.6439L37.8805 14.64L33.455 30.4891L30.0918 30.4857L26.5583 18.6483L23.0218 30.4886L19.6856 30.492Z" fill="white"/>
<path d="M39.8815 14.6494H42.6436V30.4819H39.8815V14.6494Z" fill="white"/>
<path d="M48.5485 27.9985H55.273V30.4819H45.8436V14.6494H48.5485V27.9985Z" fill="white"/>
<path d="M63.7685 14.6494C66.0356 14.6494 67.9212 15.4345 69.4071 16.9502C70.912 18.4659 71.6741 20.347 71.6741 22.5747C71.6741 24.7842 70.912 26.6653 69.4071 28.199C67.9212 29.7148 66.0356 30.4819 63.7685 30.4819H57.2727V14.6494H63.7685ZM63.7685 28.0164C65.3307 28.0164 66.6069 27.5053 67.5594 26.4828C68.5498 25.46 69.0452 24.1451 69.0452 22.5927C69.0452 21.0041 68.5498 19.7261 67.5594 18.7032C66.5881 17.6809 65.3118 17.1695 63.7685 17.1695H59.9968V28.0164H63.7685Z" fill="white"/>
<path d="M86.2464 25.9588C86.2464 27.2562 85.7702 28.334 84.7986 29.1928C83.827 30.0517 82.6842 30.4902 81.2747 30.4902H74.2075V14.6494H80.7602C82.1125 14.6494 83.2556 15.0881 84.1892 15.91C85.1416 16.7507 85.5986 17.792 85.5986 19.0342C85.5986 20.4231 85.0272 21.4825 83.9225 22.2683C85.3699 22.999 86.2464 24.3147 86.2464 25.9588ZM76.9316 17.0976V21.2633H80.7797C81.9793 21.2633 82.8934 20.3498 82.8934 19.1804C82.8934 18.011 81.9793 17.0976 80.7797 17.0976H76.9316ZM81.2935 28.0602C82.5507 28.0602 83.5414 27.0733 83.5414 25.831C83.5414 24.5885 82.5507 23.6201 81.2935 23.6201H76.9316V28.0602H81.2935Z" fill="white"/>
<path d="M91.5227 28.0051H98.8371V30.4899H88.8178V14.6493H98.7231V17.134H91.5227V21.245H98.1325V23.7113H91.5227V28.0051Z" fill="white"/>
<path d="M110.686 30.4899L107.181 24.7165H103.981V30.4899H101.276V14.6493H107.885C109.371 14.6493 110.628 15.1424 111.638 16.1476C112.667 17.1158 113.2 18.3216 113.2 19.7468C113.2 21.7568 111.886 23.6021 109.923 24.3327L113.676 30.4899H110.686ZM103.981 17.0976V22.3963H107.866C109.314 22.3963 110.457 21.2269 110.457 19.7468C110.457 18.2852 109.295 17.0976 107.866 17.0976H103.981Z" fill="white"/>
<path d="M125.143 30.4899L121.658 24.7137H118.458V30.4899H115.753V14.6413H122.363C123.849 14.6413 125.106 15.1345 126.115 16.1399C127.144 17.109 127.677 18.3152 127.677 19.7412C127.677 21.7523 126.363 23.5982 124.401 24.3294L128.153 30.4899H125.143ZM118.458 17.0904V22.3921H122.343C123.791 22.3921 124.934 21.2218 124.934 19.7412C124.934 18.2789 123.772 17.0904 122.343 17.0904H118.458Z" fill="white"/>
<path d="M130.135 14.6425H132.839V30.4899H130.135V14.6425Z" fill="white"/>
<path d="M138.744 28.0051H146.059V30.4899H136.04V14.6493H145.945V17.134H138.744V21.245H145.354V23.7113H138.744V28.0051Z" fill="white"/>
<path d="M147.945 26.8843L150.288 25.5694C150.954 27.359 152.307 28.2355 154.383 28.2355C156.441 28.2355 157.45 27.3957 157.45 26.1539C157.45 25.4964 157.164 25.0216 156.631 24.6929C156.098 24.346 155.107 23.9626 153.698 23.5606C152.117 23.1042 151.336 22.812 150.231 22.1183C149.164 21.388 148.631 20.347 148.631 18.9227C148.631 17.5165 149.145 16.4207 150.193 15.599C151.221 14.7587 152.479 14.3572 153.945 14.3572C156.593 14.3572 158.631 15.6721 159.698 17.8449L157.412 19.1052C156.727 17.6442 155.565 16.8957 153.945 16.8957C152.364 16.8957 151.355 17.6623 151.355 18.8678C151.355 20.0364 152.155 20.5841 154.688 21.3329C155.317 21.5339 155.774 21.68 156.06 21.7894C156.364 21.8807 156.764 22.045 157.279 22.2458C157.812 22.447 158.231 22.684 158.479 22.8853C159.355 23.5424 160.174 24.5905 160.174 26.1357C160.174 27.5601 159.641 28.7105 158.555 29.5504C157.489 30.3905 156.079 30.792 154.326 30.792C151.126 30.7739 148.802 29.3133 147.945 26.8843Z" fill="white"/>
</g>
<defs>
<linearGradient id="paint0_linear_391_1242" x1="0.504652" y1="22.5742" x2="174.932" y2="22.5742" gradientUnits="userSpaceOnUse">
<stop stop-color="#BC0C8E"/>
<stop offset="1" stop-color="#432D86"/>
</linearGradient>
<clipPath id="clip0_391_1242">
<rect width="174.6" height="45" fill="white" transform="translate(0.399994)"/>
</clipPath>
</defs>
</svg>
